# xmcd CD database file
#
# Track frame offsets:
#	150
#	2870
#	26280
#	48847
#	49192
#	68972
#	90510
#	109177
#	127735
#	129890
#	157315
#	181685
#	201027
#	203025
#	224345
#	244987
#	267135
#	267975
#	296505
#	297165
#	320840
#
# Disc length: 4297 seconds
#
# Revision: 1
# Processed by: cddbd v1.5.2PL0 Copyright (c) Steve Scherf et al.
# Submitted via: CDex 1.70beta3
#
DISCID=3310c715
DTITLE=Selected By Kei Kobayashi - Routine Jazz #06
DYEAR=2005
DGENRE=Jazz
TTITLE0=Routine Jazz Opening
TTITLE1=Circus In C Minor/Paolo Fedreghini&Marco Bianchi
TTITLE2=High Five/Soulstance
TTITLE3=Routine Jazz Interlude 1
TTITLE4=Forma 2000/Nicola Conte
TTITLE5=Edge Walker /Street Jazz Unit
TTITLE6=Please Don't Leave/The Kenny Clarke and Francy Boland Sextet
TTITLE7=Mirage/Kei Kobayashi Featuring B-Bandj In Dark Shadow
TTITLE8=Routine Jazz Interulude 2
TTITLE9=独拘jazz道(Sw Mix)/Dj Mitsu The Beats
TTITLE10=Heading For What I Know/Gerardo Frisina
TTITLE11=Ballade Du Nuage/Cabaret Noir
TTITLE12=Routine Jazz Interulude 3
TTITLE13=Joker/Che Sa Mossa
TTITLE14=Chico Desperado/Bossa Nostra Featuring Bruna Loppez
TTITLE15=Sambassim(Mad Zoo Holographic Mix)/Fernanda Porto
TTITLE16=Routine Jazz Interlude 4
TTITLE17=Pressure/Soul Quality Quartet
TTITLE18=Routine Jazz Interlude 5
TTITLE19=Fascinated Blues/The Fascinations
TTITLE20=routine jazz endtitle
EXTD=YEAR: 2005
EXTT0=
EXTT1=
EXTT2=
EXTT3=
EXTT4=
EXTT5=
EXTT6=
EXTT7=
EXTT8=
EXTT9=
EXTT10=
EXTT11=
EXTT12=
EXTT13=
EXTT14=
EXTT15=
EXTT16=
EXTT17=
EXTT18=
EXTT19=
EXTT20=
PLAYORDER=
